<svg viewBox="0 0 160 160" xmlns="http://www.w3.org/2000/svg" shape-rendering="crispEdges">
  <!-- Background -->
  <rect fill="#1a1a2e" width="160" height="160" rx="32"/>

  <!-- Cat head base (orange) - 10x8 grid scaled 10x -->
  <!-- Row 1: ears top -->
  <rect fill="#ff8c42" x="40" y="40" width="20" height="10"/>
  <rect fill="#ff8c42" x="100" y="40" width="20" height="10"/>

  <!-- Row 2: ears middle -->
  <rect fill="#ff8c42" x="30" y="50" width="30" height="10"/>
  <rect fill="#ff8c42" x="100" y="50" width="30" height="10"/>

  <!-- Row 3: head top with ears bottom -->
  <rect fill="#ff8c42" x="30" y="60" width="100" height="10"/>

  <!-- Row 4-7: head middle -->
  <rect fill="#ff8c42" x="20" y="70" width="120" height="10"/>
  <rect fill="#ff8c42" x="20" y="80" width="120" height="10"/>
  <rect fill="#ff8c42" x="20" y="90" width="120" height="10"/>
  <rect fill="#ff8c42" x="20" y="100" width="120" height="10"/>

  <!-- Row 8: chin -->
  <rect fill="#ff8c42" x="30" y="110" width="100" height="10"/>

  <!-- Inner ears (light orange) -->
  <rect fill="#ffb088" x="40" y="50" width="10" height="10"/>
  <rect fill="#ffb088" x="110" y="50" width="10" height="10"/>

  <!-- Eyes (dark) -->
  <rect fill="#1a1a2e" x="50" y="80" width="10" height="10"/>
  <rect fill="#1a1a2e" x="100" y="80" width="10" height="10"/>

  <!-- Nose (pink) -->
  <rect fill="#ff69b4" x="75" y="95" width="10" height="10"/>
</svg>
